<?xml version="1.0" encoding="utf-8"?>

<!DOCTYPE svg PUBLIC "-//W3C//DTD SVG 1.1//EN" "http://www.w3.org/Graphics/SVG/1.1/DTD/svg11.dtd">
<!-- Uploaded to: SVG Repo, www.svgrepo.com, Generator: SVG Repo Mixer Tools -->
<svg height="800px" width="800px" version="1.1" id="_x32_" xmlns="http://www.w3.org/2000/svg" xmlns:xlink="http://www.w3.org/1999/xlink" 
	 viewBox="0 0 512 512"  xml:space="preserve">
<style type="text/css">
	.st0{fill:#000000;}
</style>
<g>
	<path class="st0" d="M510.768,69.362c-2.942-14.212-11.22-28.456-25.465-42.669c-12.649-12.665-25.265-20.611-37.948-24.292
		c-9.475-2.776-18.849-3.017-27.426-1.38c-12.899,2.452-23.836,8.744-33.211,15.824c-9.392,7.106-17.387,15.167-24.268,22.024
		c-24.368,24.377-56.05,56.058-92.618,92.618c-10.14,10.172-20.179,23.562-30.484,38.696c-15.425,22.68-31.349,49.276-46.99,73.71
		c-15.575,24.41-31.083,46.708-44.38,59.948l-88.479,88.479c-15.525-7.065-34.441-4.356-47.19,8.394
		c-16.406,16.414-16.406,43.1,0,59.515l39.477,39.468c16.389,16.406,43.084,16.406,59.49-0.008
		c12.766-12.75,15.474-31.673,8.411-47.19l88.478-88.479c8.81-8.843,21.675-18.75,36.486-28.922
		c22.223-15.276,48.802-31.241,73.402-46.899c24.634-15.716,47.223-30.884,62.448-46.043c36.552-36.56,68.25-68.249,92.618-92.617
		c6.1-6.109,13.148-13.115,19.63-21.184c4.854-6.051,9.424-12.725,12.932-20.212C510.984,96.98,513.76,83.558,510.768,69.362z
		 M103.596,432.477l-24.084-24.068l10.438-10.422l34.391,13.746L103.596,432.477z M137.422,398.643l-34.391-13.755l20.013-20.004
		l34.391,13.754L137.422,398.643z M170.533,365.541l-34.39-13.747l28.689-28.706l24.068,24.077L170.533,365.541z"/>
</g>
</svg>