<?xml version="1.0" encoding="utf-8"?>

<!DOCTYPE svg PUBLIC "-//W3C//DTD SVG 1.1//EN" "http://www.w3.org/Graphics/SVG/1.1/DTD/svg11.dtd">
<!-- Uploaded to: SVG Repo, www.svgrepo.com, Generator: SVG Repo Mixer Tools -->
<svg height="800px" width="800px" version="1.1" id="_x32_" xmlns="http://www.w3.org/2000/svg" xmlns:xlink="http://www.w3.org/1999/xlink" 
	 viewBox="0 0 512 512"  xml:space="preserve">
<style type="text/css">
	.st0{fill:#000000;}
</style>
<g>
	<path class="st0" d="M302.889,52.097c-171.405,0-209.111,121.747-209.111,169.744c0,11.427-10.157,22.529-19.237,23.614
		c-102.082,12.187-85.355,68.518-32.76,82.278c96.82,25.319,198.156-8.474,243.968-6.097c39.434,0,34.282,35.425,34.282,59.423
		c0,23.998,30.848,78.845,92.552,78.845S512,418.764,512,374.2c0-27.424,0-92.553,0-92.553V227.17
		C512,162.041,474.287,52.097,302.889,52.097z M418.813,405.336c-16.572,0-29.999-13.428-29.999-29.992
		c0-16.565,13.427-29.992,29.999-29.992c16.565,0,29.992,13.427,29.992,29.992C448.805,391.909,435.378,405.336,418.813,405.336z"/>
</g>
</svg>