<svg xmlns="http://www.w3.org/2000/svg" viewBox="0 0 16 16" fill="currentColor" aria-hidden="true"><path d="M8 0C5.8 0 5.5 0 4.7.1 3.9.1 3.3.3 2.8.5 2.2.7 1.8 1 1.3 1.4.9 1.8.6 2.3.4 2.8.2 3.3.1 3.9.1 4.7 0 5.5 0 5.8 0 8s0 2.5.1 3.3c0 .8.2 1.4.4 1.9.2.6.5 1 .9 1.5.4.4.9.7 1.5.9.5.2 1.1.4 1.9.4.8 0 1.1.1 3.3.1s2.5 0 3.3-.1c.8 0 1.4-.2 1.9-.4.6-.2 1-.5 1.5-.9.4-.4.7-.9.9-1.5.2-.5.4-1.1.4-1.9.1-.8.1-1.1.1-3.3s0-2.5-.1-3.3c0-.8-.2-1.4-.4-1.9-.2-.6-.5-1-.9-1.5-.4-.4-.9-.7-1.5-.9-.5-.2-1.1-.4-1.9-.4C10.5 0 10.2 0 8 0Zm0 1.4c2.2 0 2.4 0 3.2.1.7 0 1.1.1 1.4.3.4.1.6.3.9.6.3.3.4.5.6.9.1.3.2.7.3 1.4 0 .8.1 1 .1 3.2s0 2.4-.1 3.2c0 .7-.1 1.1-.3 1.4-.1.4-.3.6-.6.9-.3.3-.5.4-.9.6-.3.1-.7.2-1.4.3-.8 0-1 .1-3.2.1s-2.4 0-3.2-.1c-.7 0-1.1-.1-1.4-.3-.4-.1-.6-.3-.9-.6-.3-.3-.4-.5-.6-.9-.1-.3-.2-.7-.3-1.4 0-.8-.1-1-.1-3.2s0-2.4.1-3.2c0-.7.1-1.1.3-1.4.1-.4.3-.6.6-.9.3-.3.5-.4.9-.6.3-.1.7-.2 1.4-.3.8 0 1-.1 3.2-.1Zm0 2.5a4.1 4.1 0 1 0 0 8.2A4.1 4.1 0 0 0 8 3.9Zm0 6.8a2.7 2.7 0 1 1 0-5.4 2.7 2.7 0 0 1 0 5.4Zm4.3-7a1 1 0 1 0 0 2 1 1 0 0 0 0-2Z"/></svg>
